<?xml version="1.0" encoding="UTF-8" standalone="no"?>
<svg
   xmlns:dc="http://purl.org/dc/elements/1.1/"
   xmlns:cc="http://creativecommons.org/ns#"
   xmlns:rdf="http://www.w3.org/1999/02/22-rdf-syntax-ns#"
   xmlns:svg="http://www.w3.org/2000/svg"
   xmlns="http://www.w3.org/2000/svg"
   xmlns:sodipodi="http://sodipodi.sourceforge.net/DTD/sodipodi-0.dtd"
   xmlns:inkscape="http://www.inkscape.org/namespaces/inkscape"
   enable-background="new 0 0 595.3 699.4"
   viewBox="0 0 924.63058 406.00765"
   version="1.1"
   id="svg4"
   sodipodi:docname="utn_logo.svg"
   width="924.63055"
   height="406.00766"
   style="image-rendering:optimizeQuality;shape-rendering:geometricPrecision;text-rendering:geometricPrecision"
   inkscape:version="0.92.4 (5da689c313, 2019-01-14)">
  <metadata
     id="metadata10">
    <rdf:RDF>
      <cc:Work
         rdf:about="">
        <dc:format>image/svg+xml</dc:format>
        <dc:type
           rdf:resource="http://purl.org/dc/dcmitype/StillImage" />
      </cc:Work>
    </rdf:RDF>
  </metadata>
  <defs
     id="defs8" />
  <sodipodi:namedview
     pagecolor="#ffffff"
     bordercolor="#666666"
     borderopacity="1"
     objecttolerance="10"
     gridtolerance="10"
     guidetolerance="10"
     inkscape:pageopacity="0"
     inkscape:pageshadow="2"
     inkscape:window-width="1366"
     inkscape:window-height="704"
     id="namedview6"
     showgrid="false"
     inkscape:zoom="0.33743207"
     inkscape:cx="30.723765"
     inkscape:cy="213.37627"
     inkscape:window-x="0"
     inkscape:window-y="27"
     inkscape:window-maximized="1"
     inkscape:current-layer="svg4" />
  <g
     id="g4519"
     transform="translate(486.0238,20.744947)">
    <rect
       style="fill:#ffffff;fill-opacity:1;stroke:none"
       y="-20.744947"
       x="-486.0238"
       height="406.00766"
       width="924.63055"
       id="rect7" />
    <path
       style="clip-rule:evenodd;fill-rule:evenodd;stroke-width:0.49152541"
       inkscape:connector-curvature="0"
       id="path2"
       d="M -47.712697,8.8906793 H 2.4228726 V 102.67372 C 42.138123,91.663554 71.433043,55.143224 71.433043,12.036439 h 52.249147 c 0,72.008475 -52.494917,132.171181 -121.2101674,144.115251 v 2.16271 H 117.43981 v 51.21695 H 12.056773 c 63.8983,15.6305 111.576257,73.48304 111.576257,142.09999 H 71.433043 c 0,-43.10678 -29.29492,-79.62711 -68.9610204,-90.63728 v 91.66948 H -47.663597 v -91.66948 c -39.6661,11.01017 -68.961003,47.5305 -68.961003,90.63728 h -52.2983 c 0,-68.61695 47.678,-126.46949 111.576303,-142.09999 H -162.6314 V 158.3144 h 114.967803 v -2.16271 C -116.428,144.20762 -168.9229,84.044914 -168.9229,12.036439 h 52.2492 c 0,43.106785 29.294903,79.627115 68.961003,90.637281 z" />
  </g>
</svg>
